<svg xmlns="http://www.w3.org/2000/svg" xmlns:xlink="http://www.w3.org/1999/xlink" viewBox="0 0 3297.19 775.33"><defs><style>.cls-1{fill:url(#linear-gradient);}.cls-2{fill:#fff;}</style><linearGradient id="linear-gradient" x1="168.79" y1="680.02" x2="506.38" y2="95.31" gradientUnits="userSpaceOnUse"><stop offset="0" stop-color="#307fff"/><stop offset="1" stop-color="#3ddad7"/></linearGradient></defs><g id="Layer_2" data-name="Layer 2"><g id="Layer_2-2" data-name="Layer 2"><path class="cls-1" d="M0,200.76V574.58a13.85,13.85,0,0,0,6.92,12L330.66,773.48a13.87,13.87,0,0,0,13.85,0L668.25,586.57a13.85,13.85,0,0,0,6.92-12V200.76a13.84,13.84,0,0,0-6.92-12L344.51,1.85a13.87,13.87,0,0,0-13.85,0L6.92,188.77A13.84,13.84,0,0,0,0,200.76Z"/><path class="cls-2" d="M724.8,195.53h67.26l110,202.36,108.31-202.36h63.84L931.71,459.45V583.14h-61V460Z"/><path class="cls-2" d="M1124.94,195.53h109.44c126.54,0,204.06,79.23,204.06,193.81s-77,193.8-204.06,193.8H1124.94ZM1231,529c100.32,0,144.21-57.57,144.21-139.65S1331.28,249.68,1231,249.68h-45V529Z"/><path class="cls-2" d="M1766.76,583.14h-72.39l-66.12-94.05a216.31,216.31,0,0,1-27.93,1.71h-38.2v92.34h-61V195.53h99.19c106.59,0,165.3,58.71,165.3,148.21,0,59.85-26.79,106-77.52,129.39ZM1598,438.36c74.67,0,104.88-35.34,104.88-94.62,0-58.72-30.78-94.06-104.88-94.06h-35.92V438.36Z"/><path class="cls-2" d="M1813.49,389.34c0-114.58,88.92-198.94,200.08-198.94s200.07,84.36,200.07,198.94-88.92,198.93-200.07,198.93S1813.49,503.91,1813.49,389.34Zm336.88,0c0-82.09-56.43-143.65-136.8-143.65s-136.81,61.56-136.81,143.65S1933.2,533,2013.57,533,2150.37,471.42,2150.37,389.34Z"/><path class="cls-2" d="M2523.14,195.53h61V583.14h-61V464.58H2337.32V583.14h-61V195.53h61v214.9h185.82Z"/><path class="cls-2" d="M2665.63,195.53h246.82v54.15H2726.62V410.43h164.74v53H2726.62V529h193.81v54.15h-254.8Z"/><path class="cls-2" d="M2983.12,195.53h69l77.52,122.56,77.52-122.56h64.41s-109.44,173.29-110,173.29l135.66,214.32h-69l-100.89-159.6-100.89,159.6H2962l132.81-210.33C3094.84,372.24,2983.12,195.53,2983.12,195.53Z"/><path class="cls-2" d="M649.65,223.57V551.76a27.92,27.92,0,0,1-13.92,24.12L351.51,740a27.92,27.92,0,0,1-27.85,0L268,707.83l14.11-24.18c23.13-39.62,68-116.52,83.2-142.12,9.66-16.31,22.47-37.61,22.47-55,0-46.32-119.11-48.25-189.86-57.79-48.76-6.57-52.89-34.62-27.67-78.88L336.52,60.26l-283,163.4v328l1,.59L136,411.74s3.56,18.23,19.84,26.95a80.26,80.26,0,0,0,33.81,9.4L110.75,584.72,96.75,609,40.49,576.49l-1.05-.61a27.92,27.92,0,0,1-13.92-24.12V223.57a27.92,27.92,0,0,1,13.92-24.11L323.66,35.36a27.92,27.92,0,0,1,27.85,0l53.16,30.4-6.95,12.16L266.48,308.41c-28.72,47.77-40.58,73.53-12.15,77,30.1,3.65,196.74-2.75,225,44.73,12.8,21.47-3.48,45.31-21.45,76-4.73,8.08-95.31,164.26-121.27,209l.94.55,284.07-164v-328l-.65-.38L504.27,425.74S504.68,414.4,491,403c-14.1-11.69-35.26-18.69-35.26-18.69l110-193L579.52,167l56.21,32.45A27.92,27.92,0,0,1,649.65,223.57Z"/></g></g></svg>